# xmcd
#
# Track frame offsets: 
#        150
#        13776
#        26872
#        41131
#        55210
#        68628
#        80410
#        93951
#        107380
#        121491
#        132017
#        144666
#        156101
#        168859
#        181209
#        193817
#        207449
#        219216
#        230519
#        244104
#        257105
#        268751
#        278445
#        291661
#        304666
#
# Disc length: 4239 seconds
#
# Revision: 0
# Processed by: cddbd v1.5.2PL0 Copyright (c) Steve Scherf et al.
# Submitted via: ExactAudioCopy v0.99pb5
#
DISCID=6a108d19
DTITLE=Various Artist - Broken Hearts - CD1
DYEAR=1945
DGENRE=Blues
TTITLE0=Bessie Smith - Sobbin' Hearted Blues  (1928)
TTITLE1=Charlie Poole and The North Carolina Ramblers - My Wife Went Awa
TTITLE1=y And Left Me (1928)
TTITLE2=Joe Calicott - Fare Thee Well Blues (1930)
TTITLE3=Little Hat Jones - Bye Bye Baby Blues (1930)
TTITLE4=Skip James - Devil Got My Woman (1931)
TTITLE5=The Carter Family - I Never Will Marry (1933)
TTITLE6=Sleepy John Estes - Someday Baby Blues (1935)
TTITLE7=Milton Brown - You're Tired Of Me (1935)
TTITLE8=The Carter Family - Just Another Broken Heart
TTITLE9=Robert Johnson - Love In Vain (1937)
TTITLE10=Gene Autry - Good-Bye Little Darlin' Good-Bye (1940)
TTITLE11=Blind Willie McTell - Delia (1940)
TTITLE12=Hoosier Hotshots - The Guy Who Stole My Wife (1940)
TTITLE13=Blind Boy Fuller - Lost Lover Blues (1940)
TTITLE14=Johnny Hodges - Your Love Has Faded (1939)
TTITLE15=Slim Gaillard - Don't Let Us Say Goodbye (1940)
TTITLE16=Al Dexter - Darling, It's All Over Now (1941)
TTITLE17=Tampa Red - It Hurts Me Too (1940)
TTITLE18=Jay McShann (w. Walter Brown) - Lonely Boy Blues (1942)
TTITLE19=Bob Willis and His Texas Playboys - Corrine Corrina (1940)
TTITLE20=Ernest Tubb - Walking The Floor Over You (1941)
TTITLE21=Leadbelly - (Black Gal) Where Did You Sleep Last Night (1944)
TTITLE22=Spade Cooley - A Pair Of Broken Hearts (1944)
TTITLE23=Eddie 'Cleanhead' Vinson - When My Baby Left Me (1945)
TTITLE24=T-Bone Walker - I'm Still In Love With You (1945)
EXTD=
EXTT0=
EXTT1=
EXTT2=
EXTT3=
EXTT4=
EXTT5=
EXTT6=
EXTT7=
EXTT8=
EXTT9=
EXTT10=
EXTT11=
EXTT12=
EXTT13=
EXTT14=
EXTT15=
EXTT16=
EXTT17=
EXTT18=
EXTT19=
EXTT20=
EXTT21=
EXTT22=
EXTT23=
EXTT24=
PLAYORDER=
